HIERARCHY
ROOT pelvis
{
  OFFSET 0 100 0
  CHANNELS 6 Xposition Yposition Zposition Zrotation Xrotation Yrotation
  JOINT pelvis_right_femur
  {
    OFFSET -10.78128 -3.44521 -0.5502486
    CHANNELS 3 Zrotation Xrotation Yrotation
    JOINT right_femur_tibia
    {
      OFFSET -0.8047443 -44.0398 -0.1307829
      CHANNELS 3 Zrotation Xrotation Yrotation
      JOINT right_tibia_foot
      {
        OFFSET 3.006224 -47.83518 -5
        CHANNELS 3 Zrotation Xrotation Yrotation
        End Site
        {
          OFFSET 0 -5 15
        }
      }
    }
  }
  JOINT pelvis_left_femur
  {
    OFFSET 10.78128 -3.44521 -0.5502486
    CHANNELS 3 Zrotation Xrotation Yrotation
    JOINT left_femur_tibia
    {
      OFFSET 0.8047443 -44.0398 -0.1307829
      CHANNELS 3 Zrotation Xrotation Yrotation
      JOINT left_tibia_foot
      {
        OFFSET -4.370144 -48.10324 -4.275266
        CHANNELS 3 Zrotation Xrotation Yrotation
        End Site
        {
          OFFSET 0 -5 15
        }
      }
    }
  }
  JOINT pelvis_spine1
  {
    OFFSET 0 6.468898 -3.129235
    CHANNELS 3 Zrotation Xrotation Yrotation
    JOINT spine1
    {
      OFFSET 0 23.15396 4.99043
      CHANNELS 3 Zrotation Xrotation Yrotation
      JOINT spine2
      {
        OFFSET 0 20.79997 -5.064912
        CHANNELS 3 Zrotation Xrotation Yrotation
        JOINT neck
        {
          OFFSET 0 14.38658 9.616178
          CHANNELS 3 Zrotation Xrotation Yrotation
          End Site
          {
            OFFSET 0 20 0
          }
        }
      }
      JOINT right_manubrium
      {
        OFFSET -5.722621 16.35077 3.967754
        CHANNELS 3 Zrotation Xrotation Yrotation
        JOINT right_clavicle
        {
          OFFSET -13.16364 1.694482 -4.693211
          CHANNELS 3 Zrotation Xrotation Yrotation
          JOINT right_humerus
          {
            OFFSET -28.5034 -0.3100689 -2.792744
            CHANNELS 3 Zrotation Xrotation Yrotation
            JOINT right_radius
            {
              OFFSET -25.15693 0.02248979 -1.271978
              CHANNELS 3 Zrotation Xrotation Yrotation
              End Site
              {
                OFFSET -15 0 0
              }
            }
          }
        }
      }
      JOINT left_manubrium
      {
        OFFSET 5.722621 16.35077 3.967754
        CHANNELS 3 Zrotation Xrotation Yrotation
        JOINT left_clavicle
        {
          OFFSET 13.16364 1.694482 -4.693211
          CHANNELS 3 Zrotation Xrotation Yrotation
          JOINT left_humerus
          {
            OFFSET 29.39168 -1.063119 -2.237045
            CHANNELS 3 Zrotation Xrotation Yrotation
            JOINT left_radius
            {
              OFFSET 24.59957 -0.9528479 0.9047498
              CHANNELS 3 Zrotation Xrotation Yrotation
              End Site
              {
                OFFSET 15 -0 -0
              }
            }
          }
        }
      }
    }
  }
}
MOTION
Frames: 7
Frame Time: 0.0416666666667
-1132.981 99.89851 280.8186 9.010158 7.167109 130.3392 6.223124 9.400448 3.490674 -0 20.65209 -0 -9.748616 -5.940818 -2.903934 3.761376 -14.01846 0.4995479 -0 24.9516 -0 9.589162 0.961022 11.29906 -0.8466289 1.222077 15.80682 -4.492139 11.18548 2.523856 2.283205 20.57553 2.064722 1.337981 -16.03692 3.667552 -0.5658804 -31.98713 11.22333 74.48941 14.60817 11.80322 -0 0 45.23416 -28.88289 6.20732 20.26497 0.5813856 -7.473768 -1.193127 -106.0118 17.04471 50.06902 -0 0 7.652247 -7.736763 -2.782801 26.74902
-1129.413 99.90575 275.7931 9.078603 7.079932 129.7872 6.223124 9.400448 3.490674 -0 20.65209 -0 -9.748616 -5.940818 -2.903934 3.761376 -14.01846 0.4995479 -0 24.9516 -0 9.589162 0.961022 11.29906 -0.8466289 1.222077 15.80682 -4.492139 11.18548 2.523856 2.283205 20.57553 2.064722 1.337981 -16.03692 3.667552 -0.5658804 -31.98713 11.22333 74.48941 14.60817 11.80322 -0 0 45.23416 -28.88289 6.20732 20.26497 0.5813856 -7.473768 -1.193127 -106.0118 17.04471 50.06902 -0 0 7.652247 -7.736763 -2.782801 26.74902
-1125.796 99.91299 270.8024 9.146185 6.992104 129.2355 6.223124 9.400448 3.490674 -0 20.65209 -0 -9.748616 -5.940818 -2.903934 3.761376 -14.01846 0.4995479 -0 24.9516 -0 9.589162 0.961022 11.29906 -0.8466289 1.222077 15.80682 -4.492139 11.18548 2.523856 2.283205 20.57553 2.064722 1.337981 -16.03692 3.667552 -0.5658804 -31.98713 11.22333 74.48941 14.60817 11.80322 -0 0 45.23416 -28.88289 6.20732 20.26497 0.5813856 -7.473768 -1.193127 -106.0118 17.04471 50.06902 -0 0 7.652247 -7.736763 -2.782801 26.74902
-1122.132 99.92023 265.847 9.2129 6.903635 128.684 6.223124 9.400448 3.490674 -0 20.65209 -0 -9.748616 -5.940818 -2.903934 3.761376 -14.01846 0.4995479 -0 24.9516 -0 9.589162 0.961022 11.29906 -0.8466289 1.222077 15.80682 -4.492139 11.18548 2.523856 2.283205 20.57553 2.064722 1.337981 -16.03692 3.667552 -0.5658804 -31.98713 11.22333 74.48941 14.60817 11.80322 -0 0 45.23416 -28.88289 6.20732 20.26497 0.5813856 -7.473768 -1.193127 -106.0118 17.04471 50.06902 -0 0 7.652247 -7.736763 -2.782801 26.74902
-1118.419 99.92747 260.9272 9.278741 6.814532 128.1327 6.223124 9.400448 3.490674 -0 20.65209 -0 -9.748616 -5.940818 -2.903934 3.761376 -14.01846 0.4995479 -0 24.9516 -0 9.589162 0.961022 11.29906 -0.8466289 1.222077 15.80682 -4.492139 11.18548 2.523856 2.283205 20.57553 2.064722 1.337981 -16.03692 3.667552 -0.5658804 -31.98713 11.22333 74.48941 14.60817 11.80322 -0 0 45.23416 -28.88289 6.20732 20.26497 0.5813856 -7.473768 -1.193127 -106.0118 17.04471 50.06902 -0 0 7.652247 -7.736763 -2.782801 26.74902
-1114.66 99.93471 256.0436 9.343704 6.724805 127.5816 6.223124 9.400448 3.490674 -0 20.65209 -0 -9.748616 -5.940818 -2.903934 3.761376 -14.01846 0.4995479 -0 24.9516 -0 9.589162 0.961022 11.29906 -0.8466289 1.222077 15.80682 -4.492139 11.18548 2.523856 2.283205 20.57553 2.064722 1.337981 -16.03692 3.667552 -0.5658804 -31.98713 11.22333 74.48941 14.60817 11.80322 -0 0 45.23416 -28.88289 6.20732 20.26497 0.5813856 -7.473768 -1.193127 -106.0118 17.04471 50.06902 -0 0 7.652247 -7.736763 -2.782801 26.74902
-1110.853 99.94195 251.1966 9.407783 6.634461 127.0307 6.223124 9.400448 3.490674 -0 20.65209 -0 -9.748616 -5.940818 -2.903934 3.761376 -14.01846 0.4995479 -0 24.9516 -0 9.589162 0.961022 11.29906 -0.8466289 1.222077 15.80682 -4.492139 11.18548 2.523856 2.283205 20.57553 2.064722 1.337981 -16.03692 3.667552 -0.5658804 -31.98713 11.22333 74.48941 14.60817 11.80322 -0 0 45.23416 -28.88289 6.20732 20.26497 0.5813856 -7.473768 -1.193127 -106.0118 17.04471 50.06902 -0 0 7.652247 -7.736763 -2.782801 26.74902
